<svg xmlns="http://www.w3.org/2000/svg" x="0px" y="0px"
width="64" height="64"
viewBox="0 0 172 172"
style=" fill:#000000;"><g fill="none" fill-rule="nonzero" stroke="none" stroke-width="1" stroke-linecap="butt" stroke-linejoin="miter" stroke-miterlimit="10" stroke-dasharray="" stroke-dashoffset="0" font-family="none" font-weight="none" font-size="none" text-anchor="none" style="mix-blend-mode: normal"><path d="M0,172v-172h172v172z" fill="none"></path><g><path d="M2.65391,86c0,-46.02344 37.32266,-83.34609 83.34609,-83.34609c46.02344,0 83.34609,37.32266 83.34609,83.34609c0,46.02344 -37.32266,83.34609 -83.34609,83.34609c-46.02344,0 -83.34609,-37.32266 -83.34609,-83.34609z" fill="#e74c3c"></path><path d="M44.91484,80.69219h82.17031v53.68281h-82.17031z" fill="#ffffff"></path><path d="M117.47734,114.25234c-2.58672,0 -4.70312,-2.11641 -4.70312,-4.70312v-45.6875c0,-14.78125 -12.02656,-26.80781 -26.80781,-26.80781c-14.78125,0 -26.80781,12.02656 -26.80781,26.80781v45.6875c0,2.58672 -2.11641,4.70313 -4.70312,4.70313c-2.58672,0 -4.70312,-2.11641 -4.70312,-4.70312v-45.6875c0,-19.95469 16.22578,-36.18047 36.18047,-36.18047c19.95469,0 36.18047,16.22578 36.18047,36.18047v45.6875c0.06719,2.62031 -2.04922,4.70313 -4.63594,4.70313z" fill="#ffffff"></path><path d="M94.93594,103.90547c0,-4.93828 -3.99766,-8.93594 -8.93594,-8.93594c-4.93828,0 -8.93594,3.99766 -8.93594,8.93594c0,3.15781 1.6125,5.9125 4.06484,7.49141c0,1.41094 0,3.15781 0,3.86328c0,2.6875 2.18359,4.87109 4.87109,4.87109c2.6875,0 4.87109,-2.18359 4.87109,-4.87109c0,-0.67187 0,-2.41875 0,-3.86328c2.45234,-1.57891 4.06484,-4.36719 4.06484,-7.49141z" fill="#e74c3c"></path></g></g></svg>